<svg width="18" height="20" viewBox="0 0 18 20" fill="none" xmlns="http://www.w3.org/2000/svg">
<path d="M11.25 0H2.25C1.65494 0.00185349 1.08501 0.213481 0.665295 0.588439C0.245576 0.963397 0.0103552 1.47105 0.0112528 2L2.55946e-06 18C-0.000895033 18.5289 0.234326 19.0366 0.654045 19.4116C1.07376 19.7865 1.64369 19.9981 2.23875 20H15.75C16.3462 19.9984 16.9175 19.7872 17.339 19.4125C17.7606 19.0377 17.9982 18.5299 18 18V6L11.25 0ZM12.2209 14.958L11.2084 16.515C11.1766 16.5609 11.1282 16.5957 11.0711 16.6137C11.014 16.6317 10.9517 16.6318 10.8945 16.614L9.62888 16.164C9.36839 16.3433 9.08242 16.4912 8.77838 16.604L8.58713 17.793C8.57613 17.8459 8.54471 17.8937 8.4983 17.9282C8.45188 17.9627 8.39338 17.9817 8.33288 17.982H6.30788C6.24698 17.9829 6.18779 17.9641 6.14125 17.9292C6.09472 17.8942 6.06399 17.8455 6.05475 17.792L5.8635 16.605C5.55389 16.4956 5.26365 16.3471 5.00175 16.164L3.74625 16.614C3.68911 16.6333 3.62609 16.6339 3.56854 16.6155C3.51099 16.5972 3.46271 16.5612 3.43238 16.514L2.41988 14.958C2.3916 14.911 2.38221 14.8569 2.39326 14.8045C2.40431 14.7521 2.43513 14.7047 2.48063 14.67L3.55388 13.923C3.51341 13.6301 3.51341 13.3339 3.55388 13.041L2.48063 12.294C2.43308 12.2606 2.40074 12.2131 2.38957 12.1601C2.3784 12.1072 2.38917 12.0524 2.41988 12.006L3.43238 10.449C3.46402 10.4027 3.51258 10.3676 3.56993 10.3494C3.62728 10.3312 3.68993 10.331 3.74738 10.349L5.00175 10.799C5.2672 10.6215 5.55625 10.4737 5.86238 10.359L6.05475 9.171C6.06548 9.1181 6.09663 9.07018 6.14284 9.0355C6.18904 9.00082 6.24741 8.98154 6.30788 8.981H8.33288C8.39263 8.98039 8.45052 8.99947 8.49539 9.03455C8.54026 9.06964 8.56893 9.11824 8.57588 9.171L8.76825 10.359C9.07741 10.4682 9.36727 10.6163 9.62888 10.799L10.8844 10.349C10.9417 10.3294 11.0049 10.3287 11.0627 10.3471C11.1205 10.3654 11.169 10.4016 11.1994 10.449L12.2119 12.006C12.24 12.0531 12.2492 12.1073 12.238 12.1597C12.2267 12.2121 12.1957 12.2594 12.15 12.294L11.0768 13.041C11.1056 13.1862 11.1192 13.3335 11.1173 13.481C11.1143 13.6289 11.1008 13.7766 11.0768 13.923L12.1601 14.67C12.2056 14.7047 12.2364 14.7521 12.2475 14.8045C12.2585 14.8569 12.2491 14.911 12.2209 14.958ZM10.125 7V1.5L16.3125 7H10.125Z" fill="white"/>
</svg>
