<svg width="232" height="25" viewBox="0 0 232 25" fill="none" xmlns="http://www.w3.org/2000/svg">
<path d="M9.77539 3.74609L3.82812 21H0.232422L7.72461 1.09375H10.0215L9.77539 3.74609ZM14.752 21L8.79102 3.74609L8.53125 1.09375H10.8418L18.3613 21H14.752ZM14.4648 13.6172V16.3379H3.63672V13.6172H14.4648ZM33.0586 18.2793V21H23.0645V18.2793H33.0586ZM24.0215 1.09375V21H20.5898V1.09375H24.0215ZM39.7734 19.5547V15.2031C39.7734 14.8698 39.7057 14.5807 39.5703 14.3359C39.4401 14.0859 39.2422 13.8932 38.9766 13.7578C38.7109 13.6224 38.3828 13.5547 37.9922 13.5547C37.6276 13.5547 37.3073 13.6172 37.0312 13.7422C36.7604 13.8672 36.5469 14.0312 36.3906 14.2344C36.2396 14.4375 36.1641 14.6562 36.1641 14.8906H34.7188C34.7188 14.5885 34.7969 14.2891 34.9531 13.9922C35.1094 13.6953 35.3333 13.4271 35.625 13.1875C35.9219 12.9427 36.276 12.75 36.6875 12.6094C37.1042 12.4635 37.5677 12.3906 38.0781 12.3906C38.6927 12.3906 39.2344 12.4948 39.7031 12.7031C40.1771 12.9115 40.5469 13.2266 40.8125 13.6484C41.0833 14.0651 41.2188 14.5885 41.2188 15.2188V19.1562C41.2188 19.4375 41.2422 19.737 41.2891 20.0547C41.3411 20.3724 41.4167 20.6458 41.5156 20.875V21H40.0078C39.9349 20.8333 39.8776 20.612 39.8359 20.3359C39.7943 20.0547 39.7734 19.7943 39.7734 19.5547ZM40.0234 15.875L40.0391 16.8906H38.5781C38.1667 16.8906 37.7995 16.9245 37.4766 16.9922C37.1536 17.0547 36.8828 17.151 36.6641 17.2812C36.4453 17.4115 36.2786 17.5755 36.1641 17.7734C36.0495 17.9661 35.9922 18.1927 35.9922 18.4531C35.9922 18.7188 36.0521 18.9609 36.1719 19.1797C36.2917 19.3984 36.4714 19.5729 36.7109 19.7031C36.9557 19.8281 37.2552 19.8906 37.6094 19.8906C38.0521 19.8906 38.4427 19.7969 38.7812 19.6094C39.1198 19.4219 39.388 19.1927 39.5859 18.9219C39.7891 18.651 39.8984 18.388 39.9141 18.1328L40.5312 18.8281C40.4948 19.0469 40.3958 19.2891 40.2344 19.5547C40.0729 19.8203 39.8568 20.0755 39.5859 20.3203C39.3203 20.5599 39.0026 20.7604 38.6328 20.9219C38.2682 21.0781 37.8568 21.1562 37.3984 21.1562C36.8255 21.1562 36.3229 21.0443 35.8906 20.8203C35.4635 20.5964 35.1302 20.2969 34.8906 19.9219C34.6562 19.5417 34.5391 19.1172 34.5391 18.6484C34.5391 18.1953 34.6276 17.7969 34.8047 17.4531C34.9818 17.1042 35.237 16.8151 35.5703 16.5859C35.9036 16.3516 36.3047 16.1745 36.7734 16.0547C37.2422 15.9349 37.7656 15.875 38.3438 15.875H40.0234ZM43.4844 9H44.9375V19.3594L44.8125 21H43.4844V9ZM50.6484 16.7031V16.8672C50.6484 17.4818 50.5755 18.0521 50.4297 18.5781C50.2839 19.099 50.0703 19.5521 49.7891 19.9375C49.5078 20.3229 49.1641 20.6224 48.7578 20.8359C48.3516 21.0495 47.8854 21.1562 47.3594 21.1562C46.8229 21.1562 46.3516 21.0651 45.9453 20.8828C45.5443 20.6953 45.2057 20.4271 44.9297 20.0781C44.6536 19.7292 44.4323 19.3073 44.2656 18.8125C44.1042 18.3177 43.9922 17.7604 43.9297 17.1406V16.4219C43.9922 15.7969 44.1042 15.237 44.2656 14.7422C44.4323 14.2474 44.6536 13.8255 44.9297 13.4766C45.2057 13.1224 45.5443 12.8542 45.9453 12.6719C46.3464 12.4844 46.8125 12.3906 47.3438 12.3906C47.875 12.3906 48.3464 12.4948 48.7578 12.7031C49.1693 12.9062 49.513 13.1979 49.7891 13.5781C50.0703 13.9583 50.2839 14.4141 50.4297 14.9453C50.5755 15.4714 50.6484 16.0573 50.6484 16.7031ZM49.1953 16.8672V16.7031C49.1953 16.2812 49.1562 15.8854 49.0781 15.5156C49 15.1406 48.875 14.8125 48.7031 14.5312C48.5312 14.2448 48.3047 14.0208 48.0234 13.8594C47.7422 13.6927 47.3958 13.6094 46.9844 13.6094C46.6198 13.6094 46.3021 13.6719 46.0312 13.7969C45.7656 13.9219 45.5391 14.0911 45.3516 14.3047C45.1641 14.513 45.0104 14.7526 44.8906 15.0234C44.776 15.2891 44.6901 15.5651 44.6328 15.8516V17.7344C44.7161 18.099 44.8516 18.4505 45.0391 18.7891C45.2318 19.1224 45.487 19.3958 45.8047 19.6094C46.1276 19.8229 46.526 19.9297 47 19.9297C47.3906 19.9297 47.724 19.8516 48 19.6953C48.2812 19.5339 48.5078 19.3125 48.6797 19.0312C48.8568 18.75 48.987 18.4245 49.0703 18.0547C49.1536 17.6849 49.1953 17.2891 49.1953 16.8672ZM57.6484 19.0469V12.5469H59.1016V21H57.7188L57.6484 19.0469ZM57.9219 17.2656L58.5234 17.25C58.5234 17.8125 58.4635 18.3333 58.3438 18.8125C58.2292 19.2865 58.0417 19.6979 57.7812 20.0469C57.5208 20.3958 57.1797 20.6693 56.7578 20.8672C56.3359 21.0599 55.8229 21.1562 55.2188 21.1562C54.8073 21.1562 54.4297 21.0964 54.0859 20.9766C53.7474 20.8568 53.4557 20.6719 53.2109 20.4219C52.9661 20.1719 52.776 19.8464 52.6406 19.4453C52.5104 19.0443 52.4453 18.5625 52.4453 18V12.5469H53.8906V18.0156C53.8906 18.3958 53.9323 18.7109 54.0156 18.9609C54.1042 19.2057 54.2214 19.401 54.3672 19.5469C54.5182 19.6875 54.6849 19.7865 54.8672 19.8438C55.0547 19.901 55.2474 19.9297 55.4453 19.9297C56.0599 19.9297 56.5469 19.8125 56.9062 19.5781C57.2656 19.3385 57.5234 19.0182 57.6797 18.6172C57.8411 18.2109 57.9219 17.7604 57.9219 17.2656ZM66.7812 12.5469H68.0938V20.8203C68.0938 21.5651 67.9427 22.2005 67.6406 22.7266C67.3385 23.2526 66.9167 23.651 66.375 23.9219C65.8385 24.1979 65.2188 24.3359 64.5156 24.3359C64.224 24.3359 63.8802 24.2891 63.4844 24.1953C63.0938 24.1068 62.7083 23.9531 62.3281 23.7344C61.9531 23.5208 61.638 23.2318 61.3828 22.8672L62.1406 22.0078C62.4948 22.4349 62.8646 22.7318 63.25 22.8984C63.6406 23.0651 64.026 23.1484 64.4062 23.1484C64.8646 23.1484 65.2604 23.0625 65.5938 22.8906C65.9271 22.7188 66.1849 22.4635 66.3672 22.125C66.5547 21.7917 66.6484 21.3802 66.6484 20.8906V14.4062L66.7812 12.5469ZM60.9609 16.8672V16.7031C60.9609 16.0573 61.0365 15.4714 61.1875 14.9453C61.3438 14.4141 61.5651 13.9583 61.8516 13.5781C62.1432 13.1979 62.4948 12.9062 62.9062 12.7031C63.3177 12.4948 63.7812 12.3906 64.2969 12.3906C64.8281 12.3906 65.2917 12.4844 65.6875 12.6719C66.0885 12.8542 66.4271 13.1224 66.7031 13.4766C66.9844 13.8255 67.2057 14.2474 67.3672 14.7422C67.5286 15.237 67.6406 15.7969 67.7031 16.4219V17.1406C67.6458 17.7604 67.5339 18.3177 67.3672 18.8125C67.2057 19.3073 66.9844 19.7292 66.7031 20.0781C66.4271 20.4271 66.0885 20.6953 65.6875 20.8828C65.2865 21.0651 64.8177 21.1562 64.2812 21.1562C63.776 21.1562 63.3177 21.0495 62.9062 20.8359C62.5 20.6224 62.151 20.3229 61.8594 19.9375C61.5677 19.5521 61.3438 19.099 61.1875 18.5781C61.0365 18.0521 60.9609 17.4818 60.9609 16.8672ZM62.4062 16.7031V16.8672C62.4062 17.2891 62.4479 17.6849 62.5312 18.0547C62.6198 18.4245 62.7526 18.75 62.9297 19.0312C63.112 19.3125 63.3438 19.5339 63.625 19.6953C63.9062 19.8516 64.2422 19.9297 64.6328 19.9297C65.112 19.9297 65.5078 19.8281 65.8203 19.625C66.1328 19.4219 66.3802 19.1536 66.5625 18.8203C66.75 18.487 66.8958 18.125 67 17.7344V15.8516C66.9427 15.5651 66.8542 15.2891 66.7344 15.0234C66.6198 14.7526 66.4688 14.513 66.2812 14.3047C66.099 14.0911 65.8724 13.9219 65.6016 13.7969C65.3307 13.6719 65.013 13.6094 64.6484 13.6094C64.2526 13.6094 63.9115 13.6927 63.625 13.8594C63.3438 14.0208 63.112 14.2448 62.9297 14.5312C62.7526 14.8125 62.6198 15.1406 62.5312 15.5156C62.4479 15.8854 62.4062 16.2812 62.4062 16.7031ZM75.2734 19.5547V15.2031C75.2734 14.8698 75.2057 14.5807 75.0703 14.3359C74.9401 14.0859 74.7422 13.8932 74.4766 13.7578C74.2109 13.6224 73.8828 13.5547 73.4922 13.5547C73.1276 13.5547 72.8073 13.6172 72.5312 13.7422C72.2604 13.8672 72.0469 14.0312 71.8906 14.2344C71.7396 14.4375 71.6641 14.6562 71.6641 14.8906H70.2188C70.2188 14.5885 70.2969 14.2891 70.4531 13.9922C70.6094 13.6953 70.8333 13.4271 71.125 13.1875C71.4219 12.9427 71.776 12.75 72.1875 12.6094C72.6042 12.4635 73.0677 12.3906 73.5781 12.3906C74.1927 12.3906 74.7344 12.4948 75.2031 12.7031C75.6771 12.9115 76.0469 13.2266 76.3125 13.6484C76.5833 14.0651 76.7188 14.5885 76.7188 15.2188V19.1562C76.7188 19.4375 76.7422 19.737 76.7891 20.0547C76.8411 20.3724 76.9167 20.6458 77.0156 20.875V21H75.5078C75.4349 20.8333 75.3776 20.612 75.3359 20.3359C75.2943 20.0547 75.2734 19.7943 75.2734 19.5547ZM75.5234 15.875L75.5391 16.8906H74.0781C73.6667 16.8906 73.2995 16.9245 72.9766 16.9922C72.6536 17.0547 72.3828 17.151 72.1641 17.2812C71.9453 17.4115 71.7786 17.5755 71.6641 17.7734C71.5495 17.9661 71.4922 18.1927 71.4922 18.4531C71.4922 18.7188 71.5521 18.9609 71.6719 19.1797C71.7917 19.3984 71.9714 19.5729 72.2109 19.7031C72.4557 19.8281 72.7552 19.8906 73.1094 19.8906C73.5521 19.8906 73.9427 19.7969 74.2812 19.6094C74.6198 19.4219 74.888 19.1927 75.0859 18.9219C75.2891 18.651 75.3984 18.388 75.4141 18.1328L76.0312 18.8281C75.9948 19.0469 75.8958 19.2891 75.7344 19.5547C75.5729 19.8203 75.3568 20.0755 75.0859 20.3203C74.8203 20.5599 74.5026 20.7604 74.1328 20.9219C73.7682 21.0781 73.3568 21.1562 72.8984 21.1562C72.3255 21.1562 71.8229 21.0443 71.3906 20.8203C70.9635 20.5964 70.6302 20.2969 70.3906 19.9219C70.1562 19.5417 70.0391 19.1172 70.0391 18.6484C70.0391 18.1953 70.1276 17.7969 70.3047 17.4531C70.4818 17.1042 70.737 16.8151 71.0703 16.5859C71.4036 16.3516 71.8047 16.1745 72.2734 16.0547C72.7422 15.9349 73.2656 15.875 73.8438 15.875H75.5234ZM87.5469 1.09375V21H84.1152V1.09375H87.5469ZM92.3359 14.3516V21H90.8906V12.5469H92.2578L92.3359 14.3516ZM91.9922 16.4531L91.3906 16.4297C91.3958 15.8516 91.4818 15.3177 91.6484 14.8281C91.8151 14.3333 92.0495 13.9036 92.3516 13.5391C92.6536 13.1745 93.013 12.8932 93.4297 12.6953C93.8516 12.4922 94.3177 12.3906 94.8281 12.3906C95.2448 12.3906 95.6198 12.4479 95.9531 12.5625C96.2865 12.6719 96.5703 12.849 96.8047 13.0938C97.0443 13.3385 97.2266 13.6562 97.3516 14.0469C97.4766 14.4323 97.5391 14.9036 97.5391 15.4609V21H96.0859V15.4453C96.0859 15.0026 96.0208 14.6484 95.8906 14.3828C95.7604 14.112 95.5703 13.9167 95.3203 13.7969C95.0703 13.6719 94.763 13.6094 94.3984 13.6094C94.0391 13.6094 93.7109 13.6849 93.4141 13.8359C93.1224 13.987 92.8698 14.1953 92.6562 14.4609C92.4479 14.7266 92.2839 15.0312 92.1641 15.375C92.0495 15.7135 91.9922 16.0729 91.9922 16.4531ZM101.891 21H100.445V11.6562C100.445 11.0469 100.555 10.5339 100.773 10.1172C100.997 9.69531 101.318 9.3776 101.734 9.16406C102.151 8.94531 102.646 8.83594 103.219 8.83594C103.385 8.83594 103.552 8.84635 103.719 8.86719C103.891 8.88802 104.057 8.91927 104.219 8.96094L104.141 10.1406C104.031 10.1146 103.906 10.0964 103.766 10.0859C103.63 10.0755 103.495 10.0703 103.359 10.0703C103.052 10.0703 102.786 10.1328 102.562 10.2578C102.344 10.3776 102.177 10.5547 102.062 10.7891C101.948 11.0234 101.891 11.3125 101.891 11.6562V21ZM103.688 12.5469V13.6562H99.1094V12.5469H103.688ZM104.914 16.8672V16.6875C104.914 16.0781 105.003 15.513 105.18 14.9922C105.357 14.4661 105.612 14.0104 105.945 13.625C106.279 13.2344 106.682 12.9323 107.156 12.7188C107.63 12.5 108.161 12.3906 108.75 12.3906C109.344 12.3906 109.878 12.5 110.352 12.7188C110.831 12.9323 111.237 13.2344 111.57 13.625C111.909 14.0104 112.167 14.4661 112.344 14.9922C112.521 15.513 112.609 16.0781 112.609 16.6875V16.8672C112.609 17.4766 112.521 18.0417 112.344 18.5625C112.167 19.0833 111.909 19.5391 111.57 19.9297C111.237 20.3151 110.833 20.6172 110.359 20.8359C109.891 21.0495 109.359 21.1562 108.766 21.1562C108.172 21.1562 107.638 21.0495 107.164 20.8359C106.69 20.6172 106.284 20.3151 105.945 19.9297C105.612 19.5391 105.357 19.0833 105.18 18.5625C105.003 18.0417 104.914 17.4766 104.914 16.8672ZM106.359 16.6875V16.8672C106.359 17.2891 106.409 17.6875 106.508 18.0625C106.607 18.4323 106.755 18.7604 106.953 19.0469C107.156 19.3333 107.409 19.5599 107.711 19.7266C108.013 19.888 108.365 19.9688 108.766 19.9688C109.161 19.9688 109.508 19.888 109.805 19.7266C110.107 19.5599 110.357 19.3333 110.555 19.0469C110.753 18.7604 110.901 18.4323 111 18.0625C111.104 17.6875 111.156 17.2891 111.156 16.8672V16.6875C111.156 16.2708 111.104 15.8776 111 15.5078C110.901 15.1328 110.75 14.8021 110.547 14.5156C110.349 14.224 110.099 13.9948 109.797 13.8281C109.5 13.6615 109.151 13.5781 108.75 13.5781C108.354 13.5781 108.005 13.6615 107.703 13.8281C107.406 13.9948 107.156 14.224 106.953 14.5156C106.755 14.8021 106.607 15.1328 106.508 15.5078C106.409 15.8776 106.359 16.2708 106.359 16.6875ZM115.867 13.875V21H114.422V12.5469H115.828L115.867 13.875ZM118.508 12.5L118.5 13.8438C118.38 13.8177 118.266 13.8021 118.156 13.7969C118.052 13.7865 117.932 13.7812 117.797 13.7812C117.464 13.7812 117.169 13.8333 116.914 13.9375C116.659 14.0417 116.443 14.1875 116.266 14.375C116.089 14.5625 115.948 14.7865 115.844 15.0469C115.745 15.3021 115.68 15.5833 115.648 15.8906L115.242 16.125C115.242 15.6146 115.292 15.1354 115.391 14.6875C115.495 14.2396 115.654 13.8438 115.867 13.5C116.081 13.151 116.352 12.8802 116.68 12.6875C117.013 12.4896 117.409 12.3906 117.867 12.3906C117.971 12.3906 118.091 12.4036 118.227 12.4297C118.362 12.4505 118.456 12.474 118.508 12.5ZM121.281 14.2266V21H119.828V12.5469H121.203L121.281 14.2266ZM120.984 16.4531L120.312 16.4297C120.318 15.8516 120.393 15.3177 120.539 14.8281C120.685 14.3333 120.901 13.9036 121.188 13.5391C121.474 13.1745 121.831 12.8932 122.258 12.6953C122.685 12.4922 123.18 12.3906 123.742 12.3906C124.138 12.3906 124.503 12.4479 124.836 12.5625C125.169 12.6719 125.458 12.8464 125.703 13.0859C125.948 13.3255 126.138 13.6328 126.273 14.0078C126.409 14.3828 126.477 14.8359 126.477 15.3672V21H125.031V15.4375C125.031 14.9948 124.956 14.6406 124.805 14.375C124.659 14.1094 124.451 13.9167 124.18 13.7969C123.909 13.6719 123.591 13.6094 123.227 13.6094C122.799 13.6094 122.443 13.6849 122.156 13.8359C121.87 13.987 121.641 14.1953 121.469 14.4609C121.297 14.7266 121.172 15.0312 121.094 15.375C121.021 15.7135 120.984 16.0729 120.984 16.4531ZM126.461 15.6562L125.492 15.9531C125.497 15.4896 125.573 15.0443 125.719 14.6172C125.87 14.1901 126.086 13.8099 126.367 13.4766C126.654 13.1432 127.005 12.8802 127.422 12.6875C127.839 12.4896 128.315 12.3906 128.852 12.3906C129.305 12.3906 129.706 12.4505 130.055 12.5703C130.409 12.6901 130.706 12.875 130.945 13.125C131.19 13.3698 131.375 13.6849 131.5 14.0703C131.625 14.4557 131.688 14.9141 131.688 15.4453V21H130.234V15.4297C130.234 14.9557 130.159 14.5885 130.008 14.3281C129.862 14.0625 129.654 13.8776 129.383 13.7734C129.117 13.6641 128.799 13.6094 128.43 13.6094C128.112 13.6094 127.831 13.6641 127.586 13.7734C127.341 13.8828 127.135 14.0339 126.969 14.2266C126.802 14.4141 126.674 14.6302 126.586 14.875C126.503 15.1198 126.461 15.3802 126.461 15.6562ZM138.859 19.5547V15.2031C138.859 14.8698 138.792 14.5807 138.656 14.3359C138.526 14.0859 138.328 13.8932 138.062 13.7578C137.797 13.6224 137.469 13.5547 137.078 13.5547C136.714 13.5547 136.393 13.6172 136.117 13.7422C135.846 13.8672 135.633 14.0312 135.477 14.2344C135.326 14.4375 135.25 14.6562 135.25 14.8906H133.805C133.805 14.5885 133.883 14.2891 134.039 13.9922C134.195 13.6953 134.419 13.4271 134.711 13.1875C135.008 12.9427 135.362 12.75 135.773 12.6094C136.19 12.4635 136.654 12.3906 137.164 12.3906C137.779 12.3906 138.32 12.4948 138.789 12.7031C139.263 12.9115 139.633 13.2266 139.898 13.6484C140.169 14.0651 140.305 14.5885 140.305 15.2188V19.1562C140.305 19.4375 140.328 19.737 140.375 20.0547C140.427 20.3724 140.503 20.6458 140.602 20.875V21H139.094C139.021 20.8333 138.964 20.612 138.922 20.3359C138.88 20.0547 138.859 19.7943 138.859 19.5547ZM139.109 15.875L139.125 16.8906H137.664C137.253 16.8906 136.885 16.9245 136.562 16.9922C136.24 17.0547 135.969 17.151 135.75 17.2812C135.531 17.4115 135.365 17.5755 135.25 17.7734C135.135 17.9661 135.078 18.1927 135.078 18.4531C135.078 18.7188 135.138 18.9609 135.258 19.1797C135.378 19.3984 135.557 19.5729 135.797 19.7031C136.042 19.8281 136.341 19.8906 136.695 19.8906C137.138 19.8906 137.529 19.7969 137.867 19.6094C138.206 19.4219 138.474 19.1927 138.672 18.9219C138.875 18.651 138.984 18.388 139 18.1328L139.617 18.8281C139.581 19.0469 139.482 19.2891 139.32 19.5547C139.159 19.8203 138.943 20.0755 138.672 20.3203C138.406 20.5599 138.089 20.7604 137.719 20.9219C137.354 21.0781 136.943 21.1562 136.484 21.1562C135.911 21.1562 135.409 21.0443 134.977 20.8203C134.549 20.5964 134.216 20.2969 133.977 19.9219C133.742 19.5417 133.625 19.1172 133.625 18.6484C133.625 18.1953 133.714 17.7969 133.891 17.4531C134.068 17.1042 134.323 16.8151 134.656 16.5859C134.99 16.3516 135.391 16.1745 135.859 16.0547C136.328 15.9349 136.852 15.875 137.43 15.875H139.109ZM146.117 12.5469V13.6562H141.547V12.5469H146.117ZM143.094 10.4922H144.539V18.9062C144.539 19.1927 144.583 19.4089 144.672 19.5547C144.76 19.7005 144.875 19.7969 145.016 19.8438C145.156 19.8906 145.307 19.9141 145.469 19.9141C145.589 19.9141 145.714 19.9036 145.844 19.8828C145.979 19.8568 146.081 19.8359 146.148 19.8203L146.156 21C146.042 21.0365 145.891 21.0703 145.703 21.1016C145.521 21.138 145.299 21.1562 145.039 21.1562C144.685 21.1562 144.359 21.0859 144.062 20.9453C143.766 20.8047 143.529 20.5703 143.352 20.2422C143.18 19.9089 143.094 19.4609 143.094 18.8984V10.4922ZM149.383 12.5469V21H147.93V12.5469H149.383ZM147.82 10.3047C147.82 10.0703 147.891 9.8724 148.031 9.71094C148.177 9.54948 148.391 9.46875 148.672 9.46875C148.948 9.46875 149.159 9.54948 149.305 9.71094C149.456 9.8724 149.531 10.0703 149.531 10.3047C149.531 10.5286 149.456 10.7214 149.305 10.8828C149.159 11.0391 148.948 11.1172 148.672 11.1172C148.391 11.1172 148.177 11.0391 148.031 10.8828C147.891 10.7214 147.82 10.5286 147.82 10.3047ZM151.32 16.8672V16.6875C151.32 16.0781 151.409 15.513 151.586 14.9922C151.763 14.4661 152.018 14.0104 152.352 13.625C152.685 13.2344 153.089 12.9323 153.562 12.7188C154.036 12.5 154.568 12.3906 155.156 12.3906C155.75 12.3906 156.284 12.5 156.758 12.7188C157.237 12.9323 157.643 13.2344 157.977 13.625C158.315 14.0104 158.573 14.4661 158.75 14.9922C158.927 15.513 159.016 16.0781 159.016 16.6875V16.8672C159.016 17.4766 158.927 18.0417 158.75 18.5625C158.573 19.0833 158.315 19.5391 157.977 19.9297C157.643 20.3151 157.24 20.6172 156.766 20.8359C156.297 21.0495 155.766 21.1562 155.172 21.1562C154.578 21.1562 154.044 21.0495 153.57 20.8359C153.096 20.6172 152.69 20.3151 152.352 19.9297C152.018 19.5391 151.763 19.0833 151.586 18.5625C151.409 18.0417 151.32 17.4766 151.32 16.8672ZM152.766 16.6875V16.8672C152.766 17.2891 152.815 17.6875 152.914 18.0625C153.013 18.4323 153.161 18.7604 153.359 19.0469C153.562 19.3333 153.815 19.5599 154.117 19.7266C154.419 19.888 154.771 19.9688 155.172 19.9688C155.568 19.9688 155.914 19.888 156.211 19.7266C156.513 19.5599 156.763 19.3333 156.961 19.0469C157.159 18.7604 157.307 18.4323 157.406 18.0625C157.51 17.6875 157.562 17.2891 157.562 16.8672V16.6875C157.562 16.2708 157.51 15.8776 157.406 15.5078C157.307 15.1328 157.156 14.8021 156.953 14.5156C156.755 14.224 156.505 13.9948 156.203 13.8281C155.906 13.6615 155.557 13.5781 155.156 13.5781C154.76 13.5781 154.411 13.6615 154.109 13.8281C153.812 13.9948 153.562 14.224 153.359 14.5156C153.161 14.8021 153.013 15.1328 152.914 15.5078C152.815 15.8776 152.766 16.2708 152.766 16.6875ZM162.273 14.3516V21H160.828V12.5469H162.195L162.273 14.3516ZM161.93 16.4531L161.328 16.4297C161.333 15.8516 161.419 15.3177 161.586 14.8281C161.753 14.3333 161.987 13.9036 162.289 13.5391C162.591 13.1745 162.951 12.8932 163.367 12.6953C163.789 12.4922 164.255 12.3906 164.766 12.3906C165.182 12.3906 165.557 12.4479 165.891 12.5625C166.224 12.6719 166.508 12.849 166.742 13.0938C166.982 13.3385 167.164 13.6562 167.289 14.0469C167.414 14.4323 167.477 14.9036 167.477 15.4609V21H166.023V15.4453C166.023 15.0026 165.958 14.6484 165.828 14.3828C165.698 14.112 165.508 13.9167 165.258 13.7969C165.008 13.6719 164.701 13.6094 164.336 13.6094C163.977 13.6094 163.648 13.6849 163.352 13.8359C163.06 13.987 162.807 14.1953 162.594 14.4609C162.385 14.7266 162.221 15.0312 162.102 15.375C161.987 15.7135 161.93 16.0729 161.93 16.4531ZM185.035 15.873C185.035 15.4629 184.971 15.0983 184.844 14.7793C184.725 14.4603 184.511 14.1686 184.201 13.9043C183.891 13.64 183.454 13.3848 182.889 13.1387C182.333 12.8835 181.622 12.6237 180.756 12.3594C179.808 12.0677 178.933 11.7441 178.131 11.3887C177.338 11.0241 176.645 10.6048 176.053 10.1309C175.46 9.64779 175 9.09635 174.672 8.47656C174.344 7.84766 174.18 7.12305 174.18 6.30273C174.18 5.49154 174.348 4.75326 174.686 4.08789C175.032 3.42253 175.52 2.84831 176.148 2.36523C176.786 1.87305 177.538 1.49479 178.404 1.23047C179.27 0.957031 180.227 0.820312 181.275 0.820312C182.752 0.820312 184.023 1.09375 185.09 1.64062C186.165 2.1875 186.99 2.92122 187.564 3.8418C188.148 4.76237 188.439 5.77865 188.439 6.89062H185.035C185.035 6.23438 184.894 5.6556 184.611 5.1543C184.338 4.64388 183.919 4.24284 183.354 3.95117C182.798 3.65951 182.091 3.51367 181.234 3.51367C180.423 3.51367 179.749 3.63672 179.211 3.88281C178.673 4.12891 178.272 4.46159 178.008 4.88086C177.743 5.30013 177.611 5.77409 177.611 6.30273C177.611 6.67643 177.698 7.01823 177.871 7.32812C178.044 7.62891 178.309 7.91146 178.664 8.17578C179.02 8.43099 179.466 8.67253 180.004 8.90039C180.542 9.12826 181.175 9.34701 181.904 9.55664C183.007 9.88477 183.969 10.2493 184.789 10.6504C185.609 11.0423 186.293 11.4889 186.84 11.9902C187.387 12.4915 187.797 13.0612 188.07 13.6992C188.344 14.3281 188.48 15.0436 188.48 15.8457C188.48 16.6842 188.312 17.4408 187.975 18.1152C187.637 18.7806 187.154 19.3503 186.525 19.8242C185.906 20.2891 185.158 20.6491 184.283 20.9043C183.417 21.1504 182.451 21.2734 181.385 21.2734C180.428 21.2734 179.484 21.1458 178.555 20.8906C177.634 20.6354 176.796 20.248 176.039 19.7285C175.283 19.1999 174.681 18.5436 174.234 17.7598C173.788 16.9668 173.564 16.0417 173.564 14.9844H176.996C176.996 15.6315 177.105 16.1829 177.324 16.6387C177.552 17.0944 177.867 17.4681 178.268 17.7598C178.669 18.0423 179.133 18.252 179.662 18.3887C180.2 18.5254 180.774 18.5938 181.385 18.5938C182.187 18.5938 182.857 18.4798 183.395 18.252C183.941 18.0241 184.352 17.7051 184.625 17.2949C184.898 16.8848 185.035 16.4108 185.035 15.873ZM192.969 20.125L195.32 12.5469H196.867L193.477 22.3047C193.398 22.513 193.294 22.737 193.164 22.9766C193.039 23.2214 192.878 23.4531 192.68 23.6719C192.482 23.8906 192.242 24.0677 191.961 24.2031C191.685 24.3438 191.354 24.4141 190.969 24.4141C190.854 24.4141 190.708 24.3984 190.531 24.3672C190.354 24.3359 190.229 24.3099 190.156 24.2891L190.148 23.1172C190.19 23.1224 190.255 23.1276 190.344 23.1328C190.438 23.1432 190.503 23.1484 190.539 23.1484C190.867 23.1484 191.146 23.1042 191.375 23.0156C191.604 22.9323 191.797 22.7891 191.953 22.5859C192.115 22.388 192.253 22.1146 192.367 21.7656L192.969 20.125ZM191.242 12.5469L193.438 19.1094L193.812 20.6328L192.773 21.1641L189.664 12.5469H191.242ZM203.094 18.7578C203.094 18.5495 203.047 18.3568 202.953 18.1797C202.865 17.9974 202.68 17.8333 202.398 17.6875C202.122 17.5365 201.706 17.4062 201.148 17.2969C200.68 17.1979 200.255 17.0807 199.875 16.9453C199.5 16.8099 199.18 16.6458 198.914 16.4531C198.654 16.2604 198.453 16.0339 198.312 15.7734C198.172 15.513 198.102 15.2083 198.102 14.8594C198.102 14.526 198.174 14.2109 198.32 13.9141C198.471 13.6172 198.682 13.3542 198.953 13.125C199.229 12.8958 199.56 12.7161 199.945 12.5859C200.331 12.4557 200.76 12.3906 201.234 12.3906C201.911 12.3906 202.49 12.5104 202.969 12.75C203.448 12.9896 203.815 13.3099 204.07 13.7109C204.326 14.1068 204.453 14.5469 204.453 15.0312H203.008C203.008 14.7969 202.938 14.5703 202.797 14.3516C202.661 14.1276 202.461 13.9427 202.195 13.7969C201.935 13.651 201.615 13.5781 201.234 13.5781C200.833 13.5781 200.508 13.6406 200.258 13.7656C200.013 13.8854 199.833 14.0391 199.719 14.2266C199.609 14.4141 199.555 14.612 199.555 14.8203C199.555 14.9766 199.581 15.1172 199.633 15.2422C199.69 15.362 199.789 15.474 199.93 15.5781C200.07 15.6771 200.268 15.7708 200.523 15.8594C200.779 15.9479 201.104 16.0365 201.5 16.125C202.193 16.2812 202.763 16.4688 203.211 16.6875C203.659 16.9062 203.992 17.1745 204.211 17.4922C204.43 17.8099 204.539 18.1953 204.539 18.6484C204.539 19.0182 204.461 19.3568 204.305 19.6641C204.154 19.9714 203.932 20.237 203.641 20.4609C203.354 20.6797 203.01 20.8516 202.609 20.9766C202.214 21.0964 201.768 21.1562 201.273 21.1562C200.529 21.1562 199.898 21.0234 199.383 20.7578C198.867 20.4922 198.477 20.1484 198.211 19.7266C197.945 19.3047 197.812 18.8594 197.812 18.3906H199.266C199.286 18.7865 199.401 19.1016 199.609 19.3359C199.818 19.5651 200.073 19.7292 200.375 19.8281C200.677 19.9219 200.977 19.9688 201.273 19.9688C201.669 19.9688 202 19.9167 202.266 19.8125C202.536 19.7083 202.742 19.5651 202.883 19.3828C203.023 19.2005 203.094 18.9922 203.094 18.7578ZM209.977 12.5469V13.6562H205.406V12.5469H209.977ZM206.953 10.4922H208.398V18.9062C208.398 19.1927 208.443 19.4089 208.531 19.5547C208.62 19.7005 208.734 19.7969 208.875 19.8438C209.016 19.8906 209.167 19.9141 209.328 19.9141C209.448 19.9141 209.573 19.9036 209.703 19.8828C209.839 19.8568 209.94 19.8359 210.008 19.8203L210.016 21C209.901 21.0365 209.75 21.0703 209.562 21.1016C209.38 21.138 209.159 21.1562 208.898 21.1562C208.544 21.1562 208.219 21.0859 207.922 20.9453C207.625 20.8047 207.388 20.5703 207.211 20.2422C207.039 19.9089 206.953 19.4609 206.953 18.8984V10.4922ZM215.18 21.1562C214.591 21.1562 214.057 21.0573 213.578 20.8594C213.104 20.6562 212.695 20.3724 212.352 20.0078C212.013 19.6432 211.753 19.2109 211.57 18.7109C211.388 18.2109 211.297 17.6641 211.297 17.0703V16.7422C211.297 16.0547 211.398 15.4427 211.602 14.9062C211.805 14.3646 212.081 13.9062 212.43 13.5312C212.779 13.1562 213.174 12.8724 213.617 12.6797C214.06 12.487 214.518 12.3906 214.992 12.3906C215.596 12.3906 216.117 12.4948 216.555 12.7031C216.997 12.9115 217.359 13.2031 217.641 13.5781C217.922 13.9479 218.13 14.3854 218.266 14.8906C218.401 15.3906 218.469 15.9375 218.469 16.5312V17.1797H212.156V16H217.023V15.8906C217.003 15.5156 216.924 15.151 216.789 14.7969C216.659 14.4427 216.451 14.151 216.164 13.9219C215.878 13.6927 215.487 13.5781 214.992 13.5781C214.664 13.5781 214.362 13.6484 214.086 13.7891C213.81 13.9245 213.573 14.1276 213.375 14.3984C213.177 14.6693 213.023 15 212.914 15.3906C212.805 15.7812 212.75 16.2318 212.75 16.7422V17.0703C212.75 17.4714 212.805 17.849 212.914 18.2031C213.029 18.5521 213.193 18.8594 213.406 19.125C213.625 19.3906 213.888 19.599 214.195 19.75C214.508 19.901 214.862 19.9766 215.258 19.9766C215.768 19.9766 216.201 19.8724 216.555 19.6641C216.909 19.4557 217.219 19.1771 217.484 18.8281L218.359 19.5234C218.177 19.7995 217.945 20.0625 217.664 20.3125C217.383 20.5625 217.036 20.7656 216.625 20.9219C216.219 21.0781 215.737 21.1562 215.18 21.1562ZM221.594 14.2266V21H220.141V12.5469H221.516L221.594 14.2266ZM221.297 16.4531L220.625 16.4297C220.63 15.8516 220.706 15.3177 220.852 14.8281C220.997 14.3333 221.214 13.9036 221.5 13.5391C221.786 13.1745 222.143 12.8932 222.57 12.6953C222.997 12.4922 223.492 12.3906 224.055 12.3906C224.451 12.3906 224.815 12.4479 225.148 12.5625C225.482 12.6719 225.771 12.8464 226.016 13.0859C226.26 13.3255 226.451 13.6328 226.586 14.0078C226.721 14.3828 226.789 14.8359 226.789 15.3672V21H225.344V15.4375C225.344 14.9948 225.268 14.6406 225.117 14.375C224.971 14.1094 224.763 13.9167 224.492 13.7969C224.221 13.6719 223.904 13.6094 223.539 13.6094C223.112 13.6094 222.755 13.6849 222.469 13.8359C222.182 13.987 221.953 14.1953 221.781 14.4609C221.609 14.7266 221.484 15.0312 221.406 15.375C221.333 15.7135 221.297 16.0729 221.297 16.4531ZM226.773 15.6562L225.805 15.9531C225.81 15.4896 225.885 15.0443 226.031 14.6172C226.182 14.1901 226.398 13.8099 226.68 13.4766C226.966 13.1432 227.318 12.8802 227.734 12.6875C228.151 12.4896 228.628 12.3906 229.164 12.3906C229.617 12.3906 230.018 12.4505 230.367 12.5703C230.721 12.6901 231.018 12.875 231.258 13.125C231.503 13.3698 231.688 13.6849 231.812 14.0703C231.938 14.4557 232 14.9141 232 15.4453V21H230.547V15.4297C230.547 14.9557 230.471 14.5885 230.32 14.3281C230.174 14.0625 229.966 13.8776 229.695 13.7734C229.43 13.6641 229.112 13.6094 228.742 13.6094C228.424 13.6094 228.143 13.6641 227.898 13.7734C227.654 13.8828 227.448 14.0339 227.281 14.2266C227.115 14.4141 226.987 14.6302 226.898 14.875C226.815 15.1198 226.773 15.3802 226.773 15.6562Z" fill="white"/>
</svg>
