<svg width="18" height="20" viewBox="0 0 18 20" fill="none" xmlns="http://www.w3.org/2000/svg">
<path fill-rule="evenodd" clip-rule="evenodd" d="M12.375 0C12.7699 8.91844e-06 13.1579 0.0924258 13.5 0.267962C13.842 0.443498 14.126 0.695969 14.3235 1H15.75C16.3467 1 16.919 1.21071 17.341 1.58579C17.7629 1.96086 18 2.46957 18 3V15C18 16.3261 17.4074 17.5979 16.3525 18.5355C15.2976 19.4732 13.8668 20 12.375 20H2.25C1.65326 20 1.08097 19.7893 0.65901 19.4142C0.237053 19.0391 0 18.5304 0 18V3C0 2.46957 0.237053 1.96086 0.65901 1.58579C1.08097 1.21071 1.65326 1 2.25 1H3.6765C3.87397 0.695969 4.158 0.443498 4.50003 0.267962C4.84206 0.0924258 5.23005 8.91844e-06 5.625 0H12.375ZM12.177 7.379L7.40475 11.621L5.81287 10.207C5.6007 10.0248 5.31652 9.92405 5.02155 9.92633C4.72658 9.9286 4.44441 10.0338 4.23583 10.2192C4.02725 10.4046 3.90893 10.6554 3.90637 10.9176C3.9038 11.1798 4.0172 11.4324 4.22212 11.621L6.52838 13.672C6.6433 13.7742 6.77974 13.8553 6.92992 13.9106C7.0801 13.9659 7.24107 13.9944 7.40363 13.9944C7.56618 13.9944 7.72715 13.9659 7.87733 13.9106C8.02751 13.8553 8.16395 13.7742 8.27888 13.672L13.7689 8.793C13.8733 8.70009 13.9562 8.5898 14.0127 8.46843C14.0692 8.34707 14.0982 8.217 14.0982 8.08565C14.0981 7.9543 14.069 7.82424 14.0124 7.70291C13.9558 7.58158 13.8728 7.47134 13.7683 7.3785C13.6638 7.28566 13.5397 7.21202 13.4032 7.1618C13.2666 7.11158 13.1203 7.08575 12.9725 7.0858C12.8248 7.08584 12.6785 7.11176 12.542 7.16207C12.4055 7.21238 12.2815 7.28609 12.177 7.379ZM11.8125 2H6.1875C6.05585 1.99996 5.92835 2.04097 5.82721 2.11589C5.72607 2.19081 5.6577 2.29489 5.634 2.41L5.625 2.5V3.5C5.62496 3.61703 5.67109 3.73036 5.75538 3.82026C5.83966 3.91016 5.95675 3.97094 6.08625 3.992L6.1875 4H11.8125C11.9442 4.00004 12.0717 3.95903 12.1728 3.88411C12.2739 3.80919 12.3423 3.70511 12.366 3.59L12.375 3.5V2.5C12.375 2.38297 12.3289 2.26964 12.2446 2.17974C12.1603 2.08984 12.0433 2.02906 11.9137 2.008L11.8125 2Z" fill="white"/>
</svg>
