<svg width="24" height="24" viewBox="0 0 24 24" fill="none" xmlns="http://www.w3.org/2000/svg">
<path d="M20.9056 5.99064L17.2504 7.45344L8.25039 3.85344L10.4404 2.97624C11.4418 2.57563 12.559 2.57563 13.5604 2.97624L20.4688 5.73984C20.6254 5.80219 20.7724 5.88741 20.9056 5.99064ZM12.0016 9.55344L15.6352 8.09904L6.63519 4.49904L3.53199 5.74104C3.37542 5.80337 3.22838 5.88739 3.09519 5.99064L12.0004 9.55344H12.0016ZM2.40039 7.41144C2.40039 7.27944 2.41479 7.14864 2.44239 7.02264L11.4004 10.6058V14.6462C11.0039 15.5097 10.7992 16.4489 10.8004 17.399C10.8004 18.383 11.0164 19.3154 11.4004 20.153V21.2786C11.0713 21.2315 10.749 21.1453 10.4404 21.0218L3.53199 18.2582C3.1979 18.1246 2.91152 17.894 2.70982 17.596C2.50811 17.298 2.40033 16.9465 2.40039 16.5866V7.41144ZM21.6004 7.41144V12.3074C20.419 11.3306 18.9333 10.7975 17.4004 10.8002C16.5014 10.799 15.6118 10.9819 14.7862 11.3378C13.9607 11.6936 13.2168 12.2147 12.6004 12.869V10.6058L21.5584 7.02264C21.586 7.14864 21.6004 7.27944 21.6004 7.41144ZM17.4004 22.8002C18.8326 22.8002 20.2061 22.2313 21.2188 21.2186C22.2315 20.2059 22.8004 18.8324 22.8004 17.4002C22.8004 15.9681 22.2315 14.5946 21.2188 13.5819C20.2061 12.5692 18.8326 12.0002 17.4004 12.0002C15.9682 12.0002 14.5947 12.5692 13.582 13.5819C12.5693 14.5946 12.0004 15.9681 12.0004 17.4002C12.0004 18.8324 12.5693 20.2059 13.582 21.2186C14.5947 22.2313 15.9682 22.8002 17.4004 22.8002ZM16.2004 18.3518L19.3756 15.1766C19.4881 15.064 19.6407 15.0006 19.8 15.0005C19.8788 15.0005 19.9569 15.0159 20.0297 15.046C20.1026 15.0762 20.1688 15.1203 20.2246 15.176C20.2804 15.2317 20.3246 15.2979 20.3549 15.3707C20.3851 15.4435 20.4007 15.5216 20.4007 15.6004C20.4008 15.6793 20.3853 15.7573 20.3552 15.8302C20.3251 15.903 20.2809 15.9693 20.2252 16.025L16.6252 19.625C16.5695 19.6809 16.5032 19.7253 16.4303 19.7555C16.3575 19.7857 16.2793 19.8013 16.2004 19.8013C16.1215 19.8013 16.0433 19.7857 15.9704 19.7555C15.8975 19.7253 15.8313 19.6809 15.7756 19.625L14.5756 18.425C14.4631 18.3124 14.3999 18.1596 14.4001 18.0004C14.4002 17.8412 14.4635 17.6885 14.5762 17.576C14.6889 17.4635 14.8416 17.4004 15.0008 17.4005C15.16 17.4006 15.3127 17.464 15.4252 17.5766L16.2004 18.3518Z" fill="white"/>
</svg>
